<?xml version="1.0" encoding="UTF-8" standalone="no"?>
<!DOCTYPE svg PUBLIC "-//W3C//DTD SVG 1.1//EN" "http://www.w3.org/Graphics/SVG/1.1/DTD/svg11.dtd">
<svg version="1.1" xmlns="http://www.w3.org/2000/svg" xmlns:xlink="http://www.w3.org/1999/xlink"
    preserveAspectRatio="xMidYMid meet" viewBox="0 0 350 100">
    <defs>
        <path
            d="M146.78 3.79L146.96 3.82L147.14 3.85L147.32 3.9L147.49 3.95L147.65 4.01L147.82 4.08L147.98 4.15L148.15 4.24L148.31 4.33L148.47 4.44L148.63 4.55L148.79 4.67L148.95 4.79L149.11 4.93L149.27 5.07L149.44 5.23L149.6 5.39L149.68 5.5L149.78 5.66L149.89 5.87L150.02 6.14L150.16 6.45L150.32 6.81L150.5 7.22L150.68 7.67L150.89 8.17L151.1 8.71L151.33 9.3L151.58 9.93L151.83 10.59L152.1 11.3L152.38 12.05L152.67 12.83L152.97 13.64L153.28 14.5L153.61 15.38L153.94 16.3L154.28 17.25L154.63 18.23L154.99 19.24L155.35 20.28L155.73 21.35L156.11 22.44L156.49 23.55L156.89 24.69L157.29 25.86L157.69 27.04L158.1 28.24L158.52 29.47L158.94 30.71L159.36 31.97L159.79 33.24L160.22 34.53L160.65 35.84L161.08 37.15L161.52 38.48L161.96 39.82L162.4 41.15L162.83 42.48L163.26 43.79L163.69 45.08L164.12 46.36L164.55 47.62L164.97 48.86L165.38 50.09L165.79 51.29L166.2 52.47L166.6 53.63L167 54.76L167.38 55.87L167.77 56.96L168.14 58.01L168.51 59.04L168.87 60.04L169.22 61.01L169.56 61.95L169.89 62.85L170.22 63.72L170.53 64.56L170.84 65.36L171.13 66.12L171.41 66.85L171.68 67.54L171.94 68.18L172.19 68.79L172.42 69.35L172.64 69.87L172.85 70.35L173.04 70.78L173.22 71.16L173.39 71.5L173.54 71.79L173.67 72.03L173.79 72.21L173.89 72.35L173.98 72.43L174.05 72.46L174.3 72.38L174.59 72.16L174.92 71.79L175.29 71.29L175.69 70.66L176.13 69.91L176.59 69.04L177.09 68.06L177.6 66.97L178.15 65.79L178.71 64.52L179.29 63.17L179.89 61.73L180.5 60.23L181.12 58.66L181.76 57.03L182.4 55.34L183.04 53.62L183.69 51.85L184.34 50.04L184.99 48.21L185.63 46.36L186.26 44.49L186.89 42.62L187.51 40.74L188.11 38.87L188.69 37.01L189.26 35.17L189.81 33.35L190.33 31.55L190.83 29.8L191.31 28.09L191.75 26.42L192.16 24.82L192.54 23.27L192.88 21.79L193.18 20.39L193.45 19.06L193.66 17.82L193.84 16.68L193.88 16.42L193.92 16.17L193.96 15.91L194.01 15.66L194.05 15.41L194.1 15.16L194.15 14.91L194.2 14.67L194.25 14.43L194.3 14.19L194.35 13.96L194.41 13.73L194.46 13.5L194.51 13.28L194.57 13.06L194.62 12.85L194.68 12.64L194.74 12.44L194.79 12.24L194.85 12.05L194.91 11.86L194.97 11.69L195.02 11.51L195.08 11.35L195.14 11.19L195.2 11.03L195.25 10.89L195.31 10.75L195.37 10.62L195.43 10.5L195.48 10.39L195.54 10.29L195.59 10.19L195.65 10.11L195.7 10.03L195.76 9.96L195.81 9.9L195.86 9.86L195.91 9.82L195.96 9.79L196 9.76L196.04 9.73L196.08 9.69L196.11 9.65L196.15 9.6L196.18 9.56L196.21 9.51L196.25 9.46L196.27 9.4L196.3 9.35L196.33 9.29L196.35 9.23L196.38 9.16L196.4 9.1L196.42 9.03L196.44 8.96L196.46 8.89L196.47 8.82L196.48 8.75L196.49 8.68L196.5 8.6L196.51 8.52L196.51 8.45L196.52 8.37L196.52 8.29L196.52 8.21L196.51 8.13L196.51 8.04L196.5 7.96L196.49 7.88L196.47 7.79L196.46 7.71L196.44 7.63L196.42 7.54L196.39 7.46L196.36 7.37L196.33 7.29L196.3 7.21L196.27 7.12L196.23 7.04L196.19 6.92L196.16 6.8L196.14 6.69L196.13 6.58L196.13 6.48L196.14 6.38L196.15 6.28L196.18 6.19L196.21 6.1L196.26 6.02L196.32 5.94L196.39 5.87L196.46 5.79L196.56 5.73L196.66 5.66L196.78 5.6L196.91 5.54L197.05 5.49L197.2 5.44L197.37 5.39L197.56 5.34L197.76 5.3L197.97 5.26L198.2 5.23L198.44 5.19L198.7 5.16L198.98 5.13L199.27 5.11L199.58 5.09L199.91 5.07L200.25 5.05L200.62 5.03L201 5.02L201.39 5.01L201.81 5L202.25 4.99L202.71 4.98L203.18 4.98L203.68 4.98L204.2 4.97L204.62 4.98L205.04 4.98L205.44 4.98L205.84 4.99L206.22 5L206.6 5.01L206.96 5.03L207.32 5.04L207.67 5.06L208 5.08L208.33 5.1L208.65 5.12L208.96 5.15L209.26 5.18L209.55 5.21L209.82 5.24L210.09 5.27L210.35 5.31L210.6 5.35L210.84 5.39L211.07 5.43L211.29 5.47L211.5 5.52L211.7 5.57L211.89 5.62L212.06 5.67L212.23 5.73L212.39 5.78L212.54 5.84L212.68 5.9L212.81 5.97L212.92 6.03L213.03 6.1L213.13 6.17L213.22 6.24L213.29 6.31L213.36 6.39L213.42 6.47L213.46 6.55L213.5 6.63L213.54 6.88L213.56 7.21L213.55 7.63L213.51 8.12L213.45 8.69L213.36 9.33L213.25 10.04L213.12 10.82L212.96 11.66L212.78 12.56L212.58 13.52L212.36 14.54L212.12 15.61L211.86 16.72L211.58 17.88L211.29 19.09L210.98 20.33L210.65 21.61L210.31 22.93L209.96 24.27L209.59 25.65L209.21 27.05L208.82 28.47L208.42 29.91L208.01 31.37L207.58 32.84L207.15 34.32L206.72 35.81L206.27 37.3L205.82 38.8L205.36 40.29L204.9 41.78L204.44 43.26L203.97 44.73L203.5 46.19L203.03 47.63L202.56 49.05L202.08 50.45L201.61 51.83L201.14 53.18L200.69 54.44L200.21 55.72L199.73 57.03L199.22 58.35L198.71 59.68L198.18 61.03L197.65 62.38L197.1 63.74L196.55 65.11L195.99 66.47L195.42 67.84L194.85 69.2L194.28 70.55L193.71 71.9L193.13 73.23L192.55 74.55L191.98 75.85L191.41 77.13L190.85 78.39L190.28 79.62L189.73 80.82L189.18 82L188.64 83.14L188.12 84.24L187.6 85.31L187.1 86.33L186.61 87.32L186.13 88.25L185.67 89.14L185.23 89.97L184.8 90.75L184.4 91.48L184.02 92.14L183.65 92.74L183.32 93.28L183 93.75L182.71 94.15L182.45 94.48L182.22 94.73L182.02 94.9L181.95 94.95L181.87 94.98L181.77 95.02L181.67 95.06L181.55 95.1L181.42 95.13L181.28 95.17L181.12 95.2L180.95 95.23L180.78 95.26L180.59 95.29L180.39 95.32L180.19 95.35L179.97 95.38L179.75 95.4L179.51 95.42L179.27 95.45L179.02 95.47L178.76 95.49L178.5 95.51L178.22 95.52L177.94 95.54L177.66 95.56L177.37 95.57L177.07 95.58L176.77 95.59L176.46 95.6L176.15 95.61L175.83 95.62L175.51 95.62L175.19 95.62L174.87 95.63L174.54 95.63L174.21 95.63L173.87 95.63L173.54 95.62L173.2 95.62L172.86 95.61L172.52 95.6L172.19 95.59L163.68 95.18L150 55.38L149.43 53.74L148.86 52.11L148.3 50.5L147.74 48.89L147.2 47.3L146.66 45.73L146.13 44.17L145.6 42.64L145.09 41.12L144.58 39.63L144.09 38.16L143.6 36.72L143.13 35.31L142.66 33.92L142.21 32.57L141.76 31.24L141.33 29.96L140.91 28.7L140.5 27.49L140.11 26.31L139.72 25.18L139.35 24.08L138.99 23.03L138.65 22.03L138.32 21.07L138.01 20.16L137.71 19.31L137.42 18.5L137.15 17.75L136.9 17.05L136.66 16.41L136.44 15.83L136.23 15.3L136.04 14.84L135.87 14.44L135.72 14.11L135.58 13.85L135.47 13.65L135.37 13.52L135.29 13.46L135.1 13.38L134.93 13.29L134.79 13.18L134.66 13.07L134.56 12.94L134.47 12.79L134.41 12.64L134.36 12.48L134.33 12.31L134.32 12.13L134.32 11.94L134.35 11.74L134.39 11.54L134.45 11.33L134.52 11.12L134.61 10.9L134.71 10.67L134.83 10.44L134.96 10.21L135.11 9.98L135.27 9.74L135.44 9.5L135.63 9.26L135.82 9.02L136.03 8.78L136.25 8.55L136.49 8.31L136.73 8.08L136.98 7.85L137.24 7.62L137.51 7.39L137.79 7.18L138.08 6.96L138.38 6.75L138.68 6.55L139 6.36L139.31 6.17L139.64 5.99L139.97 5.82L140.31 5.66L140.72 5.48L141.11 5.31L141.49 5.15L141.86 4.99L142.21 4.85L142.56 4.71L142.88 4.59L143.2 4.47L143.5 4.36L143.79 4.26L144.08 4.18L144.35 4.09L144.61 4.02L144.86 3.96L145.1 3.91L145.34 3.86L145.57 3.82L145.78 3.8L146 3.78L146.2 3.77L146.4 3.77L146.59 3.78L146.78 3.79ZM145.3 7.96L145.15 7.98L144.99 8L144.82 8.04L144.64 8.08L144.45 8.13L144.25 8.19L144.05 8.26L143.83 8.34L143.6 8.42L143.35 8.52L143.1 8.62L142.83 8.73L142.56 8.85L142.26 8.97L141.96 9.1L141.63 9.24L141.48 9.31L141.33 9.37L141.18 9.43L141.04 9.5L140.9 9.57L140.77 9.64L140.64 9.7L140.52 9.78L140.4 9.85L140.29 9.92L140.18 9.99L140.08 10.07L139.98 10.15L139.89 10.22L139.8 10.3L139.72 10.39L139.64 10.47L139.57 10.55L139.5 10.64L139.44 10.72L139.39 10.81L139.33 10.9L139.29 11L139.24 11.09L139.21 11.18L139.17 11.28L139.15 11.38L139.12 11.48L139.11 11.58L139.09 11.68L139.09 11.79L139.08 11.9L139.09 12.01L139.09 12.12L139.11 12.23L139.12 12.35L139.15 12.46L139.17 12.58L139.21 12.7L139.24 12.82L139.28 12.96L139.35 13.16L139.43 13.41L139.53 13.73L139.66 14.1L139.8 14.53L139.96 15.02L140.15 15.55L140.35 16.14L140.56 16.79L140.8 17.48L141.05 18.22L141.32 19L141.6 19.84L141.91 20.71L142.22 21.63L142.55 22.6L142.9 23.6L143.25 24.64L143.63 25.72L144.01 26.83L144.41 27.98L144.82 29.17L145.24 30.39L145.67 31.63L146.12 32.91L146.57 34.22L147.03 35.55L147.5 36.91L147.99 38.29L148.48 39.7L148.97 41.13L149.48 42.57L149.99 44.04L150.51 45.53L151.04 47.03L151.57 48.55L152.1 50.08L152.64 51.62L153.19 53.18L166.34 91.05L180.69 91.87L187.59 77L188.14 75.78L188.71 74.48L189.29 73.11L189.89 71.68L190.5 70.19L191.12 68.64L191.75 67.04L192.39 65.4L193.04 63.71L193.69 61.99L194.35 60.23L195.01 58.45L195.68 56.64L196.34 54.81L197 52.97L197.66 51.11L198.31 49.25L198.96 47.39L199.6 45.53L200.23 43.67L200.85 41.83L201.46 40L202.05 38.2L202.63 36.42L203.19 34.66L203.73 32.94L204.26 31.26L204.76 29.63L205.24 28.03L205.69 26.49L206.12 25.01L206.53 23.58L206.9 22.22L207.24 20.93L207.55 19.72L207.83 18.58L208.08 17.52L208.28 16.55L208.45 15.67L208.58 14.89L209.51 8.97L199.42 9.79L196.36 22.33L196.08 23.53L195.78 24.75L195.46 26L195.14 27.26L194.8 28.54L194.45 29.84L194.09 31.15L193.73 32.47L193.35 33.8L192.96 35.14L192.57 36.48L192.17 37.82L191.77 39.17L191.35 40.52L190.94 41.86L190.52 43.2L190.09 44.53L189.67 45.85L189.24 47.16L188.81 48.46L188.38 49.74L187.94 51.01L187.51 52.26L187.08 53.48L186.66 54.69L186.23 55.86L185.81 57.01L185.39 58.14L184.98 59.23L184.57 60.29L184.17 61.31L183.78 62.29L183.39 63.24L183.01 64.15L182.64 65.01L182.28 65.82L181.93 66.59L181.6 67.32L181.27 67.98L180.95 68.6L180.78 68.93L180.62 69.24L180.45 69.55L180.29 69.84L180.13 70.13L179.97 70.4L179.81 70.67L179.65 70.93L179.49 71.17L179.34 71.41L179.18 71.64L179.02 71.86L178.87 72.07L178.71 72.27L178.56 72.47L178.4 72.65L178.25 72.83L178.09 73L177.94 73.16L177.78 73.32L177.62 73.46L177.47 73.6L177.31 73.73L177.15 73.86L176.98 73.97L176.82 74.08L176.66 74.18L176.49 74.28L176.32 74.37L176.15 74.45L175.98 74.52L175.81 74.59L175.63 74.66L175.45 74.71L175.27 74.76L175.08 74.81L174.89 74.85L174.7 74.88L174.51 74.91L174.31 74.94L173.97 74.98L173.65 75.01L173.34 75.04L173.04 75.05L172.76 75.05L172.49 75.03L172.22 74.99L171.97 74.93L171.71 74.84L171.47 74.72L171.22 74.56L170.98 74.37L170.74 74.14L170.49 73.86L170.24 73.54L169.99 73.17L169.73 72.75L169.46 72.27L169.19 71.73L168.9 71.13L168.6 70.47L168.28 69.73L167.95 68.92L167.61 68.04L167.24 67.09L166.86 66.05L166.45 64.92L166.02 63.71L165.56 62.41L165.08 61.01L164.57 59.52L164.04 57.92L163.47 56.23L162.87 54.43L162.23 52.51L161.56 50.49L160.86 48.35L160.11 46.09L159.33 43.7L158.5 41.19L158.12 40.02L157.73 38.85L157.35 37.7L156.97 36.55L156.59 35.41L156.21 34.29L155.84 33.17L155.47 32.08L155.11 30.99L154.75 29.92L154.4 28.87L154.05 27.84L153.71 26.82L153.37 25.83L153.04 24.85L152.72 23.9L152.4 22.97L152.09 22.07L151.79 21.19L151.5 20.33L151.21 19.5L150.94 18.7L150.67 17.93L150.41 17.19L150.17 16.48L149.93 15.8L149.7 15.15L149.49 14.54L149.28 13.96L149.09 13.42L148.91 12.92L148.74 12.45L148.58 12.02L148.44 11.64L148.31 11.29L148.2 10.99L148.09 10.72L148.01 10.51L147.93 10.33L147.88 10.21L147.77 10.01L147.67 9.81L147.56 9.63L147.47 9.46L147.37 9.3L147.27 9.14L147.18 9L147.09 8.87L146.99 8.74L146.9 8.62L146.81 8.52L146.71 8.42L146.62 8.33L146.52 8.25L146.42 8.18L146.31 8.12L146.2 8.07L146.09 8.03L145.97 8L145.85 7.97L145.72 7.95L145.59 7.95L145.45 7.95L145.3 7.96Z"
            id="a3Zhl9vmFu"></path>
        <path
            d="M192.77 45.61C191.52 49.62 187.93 57.74 182 69.95C180.92 71.82 179.64 73.41 178.16 74.75C175.93 76.76 173.79 77.98 172.58 77.98C164.35 77.98 164.61 77.57 168.07 87.21C169.26 90.37 173.65 91.47 176.83 89.27C179.89 87.34 193.04 56.63 199.02 37.35C202.47 26.75 205.66 16.42 206.32 14.22C207.39 10.91 207.25 10.5 204.46 10.5C201.81 10.5 201.28 11.6 199.95 19.04C199.02 23.86 195.83 35.7 192.77 45.61Z"
            id="b2iez7Uwbj"></path>
        <path
            d="M257.33 3.73L258.33 3.8L259.34 3.88L260.35 4L261.35 4.13L262.36 4.29L263.36 4.47L264.36 4.68L265.35 4.91L266.34 5.15L267.31 5.42L268.28 5.71L269.23 6.03L270.17 6.36L271.1 6.71L272.01 7.08L272.91 7.47L273.78 7.88L274.64 8.31L275.47 8.75L276.28 9.21L277.07 9.69L277.83 10.19L278.56 10.71L279.27 11.24L279.94 11.78L280.59 12.34L281.2 12.92L281.77 13.51L282.24 14.03L282.68 14.54L283.11 15.03L283.51 15.51L283.88 15.97L284.24 16.43L284.57 16.87L284.88 17.3L285.17 17.71L285.44 18.12L285.68 18.52L285.9 18.9L286.1 19.28L286.28 19.64L286.44 20L286.57 20.35L286.68 20.69L286.77 21.02L286.84 21.34L286.89 21.66L286.91 21.96L286.91 22.27L286.89 22.56L286.85 22.85L286.79 23.14L286.7 23.42L286.6 23.69L286.47 23.96L286.32 24.23L286.14 24.49L285.95 24.75L285.73 25.01L285.5 25.27L285.24 25.52L284.96 25.77L284.66 26.02L284.33 26.27L283.99 26.51L283.62 26.76L283.23 27.01L282.81 27.27L282.38 27.52L281.95 27.75L281.53 27.98L281.11 28.18L280.69 28.38L280.27 28.56L279.86 28.73L279.45 28.88L279.04 29.02L278.64 29.15L278.25 29.27L277.86 29.37L277.47 29.45L277.1 29.53L276.72 29.59L276.36 29.63L276 29.67L275.65 29.69L275.31 29.7L274.98 29.69L274.66 29.67L274.35 29.63L274.04 29.59L273.75 29.53L273.47 29.45L273.2 29.37L272.94 29.27L272.69 29.15L272.46 29.02L272.23 28.88L272.02 28.73L271.83 28.56L271.65 28.38L271.48 28.18L271.33 27.98L271.19 27.75L271.07 27.52L270.97 27.27L270.88 27.01L270.76 26.65L270.63 26.3L270.48 25.95L270.32 25.61L270.14 25.27L269.95 24.94L269.74 24.62L269.52 24.3L269.29 23.99L269.04 23.69L268.78 23.39L268.51 23.1L268.22 22.82L267.93 22.54L267.62 22.28L267.3 22.02L266.97 21.77L266.63 21.53L266.28 21.29L265.92 21.07L265.54 20.86L265.16 20.65L264.77 20.45L264.38 20.27L263.97 20.09L263.56 19.92L263.13 19.77L262.7 19.62L262.27 19.48L261.82 19.36L261.37 19.25L260.91 19.14L260.45 19.05L259.98 18.97L259.51 18.9L259.03 18.85L258.54 18.8L258.05 18.77L257.56 18.75L257.07 18.75L256.82 18.75L256.56 18.75L256.31 18.76L256.06 18.77L255.8 18.78L255.55 18.8L255.29 18.82L255.03 18.84L254.78 18.87L254.53 18.89L254.27 18.92L254.02 18.95L253.77 18.99L253.52 19.03L253.27 19.07L253.03 19.11L252.79 19.15L252.55 19.2L252.32 19.25L252.08 19.3L251.86 19.35L251.63 19.4L251.42 19.46L251.2 19.52L250.99 19.58L250.79 19.64L250.6 19.71L250.4 19.77L250.22 19.84L250.04 19.91L249.87 19.98L249.71 20.05L249.55 20.12L249.4 20.2L249.26 20.28L249.13 20.35L249.01 20.43L248.9 20.51L248.79 20.59L248.7 20.67L248.44 20.88L248.19 21.09L247.95 21.32L247.71 21.55L247.49 21.8L247.26 22.06L247.05 22.32L246.84 22.6L246.64 22.88L246.45 23.17L246.27 23.47L246.09 23.78L245.93 24.09L245.77 24.41L245.62 24.73L245.48 25.06L245.34 25.39L245.22 25.73L245.1 26.06L244.99 26.41L244.9 26.75L244.81 27.1L244.73 27.45L244.66 27.79L244.6 28.14L244.55 28.49L244.51 28.84L244.48 29.19L244.47 29.53L244.46 29.87L244.46 30.21L244.47 30.55L244.5 30.88L244.53 31.21L244.58 31.54L244.63 31.86L244.7 32.17L244.78 32.48L244.87 32.78L244.98 33.07L245.1 33.41L245.24 33.74L245.38 34.06L245.53 34.38L245.7 34.69L245.88 35L246.07 35.3L246.27 35.59L246.48 35.88L246.71 36.17L246.95 36.45L247.21 36.73L247.49 37.01L247.78 37.28L248.08 37.55L248.4 37.82L248.74 38.08L249.1 38.35L249.48 38.61L249.88 38.87L250.29 39.13L250.73 39.39L251.18 39.65L251.66 39.91L252.16 40.17L252.69 40.43L253.23 40.7L253.8 40.96L254.39 41.23L255.01 41.49L255.65 41.76L256.32 42.04L257.01 42.31L257.73 42.59L258.48 42.88L259.26 43.16L260.06 43.46L260.89 43.75L261.75 44.06L262.64 44.36L263.69 44.72L264.7 45.09L265.69 45.46L266.65 45.83L267.59 46.21L268.5 46.59L269.38 46.97L270.24 47.36L271.08 47.75L271.89 48.15L272.68 48.55L273.44 48.96L274.18 49.37L274.89 49.79L275.58 50.22L276.26 50.65L276.9 51.09L277.53 51.54L278.13 51.99L278.72 52.45L279.28 52.92L279.82 53.4L280.34 53.88L280.84 54.38L281.33 54.88L281.79 55.39L282.23 55.91L282.66 56.44L283.06 56.98L283.45 57.53L283.82 58.09L284.18 58.66L284.52 59.24L284.83 59.84L285.14 60.44L285.43 61.06L285.7 61.69L285.95 62.33L286.2 62.98L286.42 63.64L286.81 64.98L287.14 66.31L287.39 67.63L287.57 68.93L287.68 70.23L287.73 71.5L287.71 72.77L287.63 74.01L287.49 75.24L287.28 76.45L287.01 77.63L286.68 78.8L286.29 79.94L285.84 81.05L285.34 82.14L284.78 83.21L284.16 84.24L283.5 85.24L282.78 86.22L282 87.16L281.18 88.07L280.31 88.94L279.39 89.77L278.43 90.57L277.41 91.33L276.36 92.05L275.26 92.73L274.11 93.37L272.93 93.96L271.7 94.51L270.44 95.01L269.13 95.47L267.79 95.88L266.42 96.23L265.01 96.54L263.56 96.79L262.08 96.99L260.57 97.13L259.03 97.22L257.46 97.25L256.11 97.23L254.77 97.18L253.46 97.1L252.17 96.99L250.91 96.84L249.67 96.67L248.46 96.47L247.27 96.24L246.12 95.99L244.99 95.71L243.9 95.4L242.84 95.07L241.81 94.72L240.82 94.35L239.87 93.95L238.95 93.53L238.08 93.09L237.24 92.64L236.45 92.16L235.7 91.67L234.99 91.16L234.33 90.63L233.71 90.09L233.14 89.54L232.62 88.97L232.16 88.4L231.74 87.81L231.37 87.2L231.06 86.59L230.81 85.97L230.61 85.35L230.47 84.71L230.39 84.07L230.36 83.42L230.4 82.77L230.5 82.12L230.67 81.46L230.9 80.8L231.2 80.14L231.56 79.48L231.63 79.37L231.7 79.26L231.77 79.16L231.84 79.07L231.91 78.98L231.98 78.9L232.05 78.82L232.12 78.75L232.19 78.69L232.26 78.63L232.34 78.57L232.41 78.52L232.49 78.48L232.57 78.44L232.65 78.41L232.73 78.38L232.82 78.36L232.91 78.34L233 78.33L233.09 78.33L233.19 78.33L233.28 78.33L233.39 78.34L233.49 78.36L233.6 78.38L233.72 78.41L233.84 78.44L233.96 78.48L234.08 78.52L234.21 78.57L234.35 78.62L234.49 78.68L234.64 78.75L234.79 78.82L234.94 78.89L235.11 78.97L235.27 79.06L235.45 79.15L235.63 79.24L235.81 79.34L235.94 79.41L236.09 79.49L236.25 79.56L236.44 79.63L236.64 79.71L236.85 79.78L237.08 79.86L237.33 79.93L237.59 80L237.87 80.08L238.16 80.15L238.46 80.22L238.78 80.3L239.11 80.37L239.45 80.44L239.8 80.51L240.16 80.58L240.53 80.65L240.92 80.72L241.31 80.79L241.71 80.86L242.12 80.92L242.53 80.98L242.96 81.05L243.39 81.11L243.82 81.17L244.26 81.23L244.71 81.29L245.16 81.34L245.62 81.4L246.08 81.45L246.54 81.5L247.01 81.55L247.47 81.59L247.94 81.64L248.41 81.68L248.88 81.72L249.35 81.75L249.82 81.79L250.29 81.82L251.41 81.88L252.49 81.92L253.53 81.95L254.53 81.98L255.5 81.98L256.43 81.98L257.32 81.96L258.18 81.93L259 81.89L259.79 81.83L260.55 81.76L261.27 81.67L261.96 81.57L262.62 81.46L263.25 81.33L263.85 81.18L264.41 81.02L264.95 80.85L265.45 80.65L265.93 80.44L266.38 80.22L266.8 79.98L267.2 79.72L267.56 79.44L267.9 79.15L268.22 78.84L268.51 78.51L268.77 78.16L269.02 77.79L269.23 77.41L269.43 77L269.6 76.58L269.75 76.13L269.87 75.67L269.98 75.19L270.07 74.68L270.13 74.16L270.18 73.61L270.21 73.04L270.22 72.46L270.21 71.99L270.19 71.53L270.16 71.09L270.11 70.65L270.05 70.23L269.98 69.82L269.89 69.42L269.78 69.03L269.66 68.65L269.52 68.28L269.37 67.92L269.19 67.57L269 67.22L268.8 66.88L268.57 66.55L268.32 66.23L268.06 65.91L267.78 65.59L267.47 65.29L267.14 64.99L266.8 64.69L266.43 64.39L266.04 64.11L265.63 63.82L265.19 63.54L264.73 63.26L264.25 62.98L263.74 62.7L263.21 62.43L262.65 62.15L262.07 61.88L261.46 61.61L260.82 61.33L260.16 61.06L259.47 60.78L258.76 60.51L258.01 60.23L257.24 59.95L256.44 59.66L255.6 59.37L254.81 59.11L254.03 58.84L253.28 58.57L252.54 58.31L251.82 58.04L251.12 57.78L250.44 57.51L249.77 57.25L249.12 56.98L248.49 56.72L247.87 56.45L247.27 56.18L246.68 55.9L246.1 55.63L245.54 55.35L244.99 55.07L244.45 54.79L243.92 54.5L243.41 54.21L242.9 53.92L242.41 53.62L241.92 53.31L241.44 53L240.97 52.69L240.51 52.37L240.05 52.04L239.6 51.71L239.16 51.37L238.72 51.03L238.29 50.68L237.86 50.32L237.43 49.95L237.01 49.58L236.59 49.19L236.17 48.8L235.75 48.4L235.34 47.99L234.92 47.57L234.5 47.14L234.09 46.7L233.16 45.65L232.3 44.56L231.51 43.45L230.79 42.31L230.14 41.15L229.56 39.98L229.05 38.78L228.61 37.58L228.23 36.36L227.92 35.13L227.68 33.89L227.5 32.65L227.38 31.4L227.33 30.16L227.34 28.91L227.41 27.67L227.54 26.44L227.74 25.21L227.99 23.99L228.31 22.79L228.68 21.6L229.11 20.43L229.6 19.28L230.15 18.16L230.75 17.05L231.4 15.98L232.12 14.93L232.88 13.91L233.7 12.93L234.57 11.98L235.5 11.07L236.47 10.2L237.5 9.37L238.57 8.59L239.7 7.86L240.87 7.17L242.09 6.54L243.36 5.96L244.68 5.44L246.04 4.97L246.9 4.72L247.78 4.5L248.67 4.3L249.58 4.13L250.51 3.99L251.46 3.87L252.41 3.78L253.38 3.72L254.36 3.69L255.34 3.68L256.33 3.69L257.33 3.73ZM253.77 7.84L253.08 7.87L252.39 7.91L251.71 7.96L251.05 8.02L250.39 8.09L249.75 8.18L249.11 8.27L248.5 8.38L247.89 8.5L247.31 8.63L246.74 8.77L246.19 8.93L245.65 9.09L245.14 9.27L244.65 9.46L244.18 9.66L243.76 9.85L243.35 10.05L242.93 10.27L242.52 10.5L242.1 10.74L241.69 10.99L241.29 11.25L240.88 11.52L240.49 11.8L240.09 12.09L239.7 12.38L239.31 12.69L238.93 13L238.56 13.32L238.19 13.64L237.83 13.98L237.48 14.31L237.13 14.66L236.79 15L236.46 15.36L236.14 15.71L235.83 16.07L235.52 16.43L235.23 16.8L234.95 17.16L234.67 17.53L234.41 17.9L234.16 18.27L233.93 18.64L233.7 19.01L233.49 19.38L233.29 19.75L233.11 20.12L232.93 20.48L232.78 20.84L232.64 21.2L232.51 21.56L232.4 21.91L232.3 22.26L232.23 22.6L232.2 22.76L232.17 22.91L232.13 23.07L232.1 23.23L232.07 23.39L232.04 23.54L232.01 23.7L231.97 23.86L231.94 24.02L231.91 24.18L231.88 24.33L231.84 24.49L231.81 24.64L231.78 24.8L231.74 24.95L231.71 25.1L231.68 25.25L231.64 25.4L231.61 25.54L231.58 25.68L231.55 25.82L231.51 25.96L231.48 26.1L231.45 26.23L231.42 26.36L231.39 26.49L231.36 26.61L231.33 26.73L231.3 26.85L231.27 26.96L231.25 27.07L231.22 27.17L231.19 27.27L231.17 27.37L231.14 27.46L231.12 27.54L231.09 27.63L231.07 27.7L231.05 27.77L231.03 27.84L231.01 27.9L231 27.98L230.98 28.06L230.97 28.16L230.96 28.26L230.95 28.38L230.95 28.5L230.95 28.62L230.95 28.76L230.95 28.9L230.95 29.05L230.96 29.21L230.97 29.38L230.98 29.55L230.99 29.72L231.01 29.91L231.02 30.1L231.04 30.29L231.06 30.49L231.08 30.69L231.1 30.9L231.13 31.12L231.16 31.33L231.18 31.55L231.21 31.78L231.24 32.01L231.28 32.24L231.31 32.47L231.35 32.71L231.39 32.95L231.42 33.19L231.46 33.43L231.51 33.68L231.55 33.92L231.59 34.17L231.64 34.42L231.68 34.67L231.73 34.91L231.78 35.16L231.83 35.41L231.99 36.14L232.17 36.86L232.36 37.55L232.57 38.22L232.79 38.87L233.02 39.51L233.28 40.13L233.55 40.73L233.84 41.32L234.15 41.89L234.48 42.45L234.83 42.99L235.21 43.52L235.6 44.04L236.03 44.55L236.47 45.05L236.95 45.54L237.45 46.02L237.98 46.5L238.54 46.96L239.12 47.42L239.74 47.87L240.39 48.32L241.08 48.77L241.79 49.21L242.54 49.65L243.33 50.08L244.15 50.52L245.01 50.95L245.91 51.39L246.85 51.82L247.83 52.26L248.85 52.7L249.91 53.15L251.01 53.6L252.16 54.05L253.35 54.51L254.58 54.98L255.87 55.45L257.2 55.93L258.23 56.3L259.22 56.68L260.17 57.05L261.1 57.43L261.98 57.81L262.83 58.2L263.65 58.58L264.43 58.97L265.18 59.37L265.9 59.77L266.58 60.18L267.23 60.59L267.85 61.01L268.43 61.43L268.99 61.86L269.51 62.3L270 62.75L270.46 63.2L270.89 63.67L271.3 64.14L271.67 64.62L272.01 65.12L272.32 65.62L272.61 66.13L272.86 66.66L273.09 67.2L273.29 67.74L273.46 68.31L273.61 68.88L273.73 69.47L273.82 70.07L273.89 70.68L273.93 71.32L273.95 71.96L273.94 72.62L273.91 73.3L273.85 73.99L273.77 74.7L273.66 75.43L273.54 76.17L273.49 76.47L273.43 76.75L273.38 77.03L273.32 77.29L273.26 77.55L273.2 77.8L273.13 78.04L273.06 78.27L272.99 78.5L272.91 78.71L272.82 78.93L272.73 79.13L272.64 79.33L272.53 79.52L272.43 79.71L272.31 79.89L272.19 80.07L272.06 80.24L271.92 80.41L271.78 80.58L271.62 80.75L271.46 80.91L271.29 81.07L271.11 81.22L270.92 81.38L270.72 81.53L270.5 81.68L270.28 81.84L270.05 81.99L269.8 82.14L269.54 82.29L269.27 82.45L268.99 82.6L268.7 82.76L268.39 82.92L268.06 83.08L267.73 83.24L267.38 83.41L267.01 83.58L266.63 83.75L266.25 83.92L265.87 84.09L265.5 84.24L265.14 84.39L264.79 84.54L264.44 84.68L264.1 84.81L263.76 84.93L263.42 85.05L263.09 85.16L262.76 85.26L262.43 85.36L262.1 85.45L261.76 85.53L261.43 85.61L261.1 85.69L260.76 85.75L260.42 85.81L260.07 85.87L259.72 85.92L259.37 85.96L259 86L258.63 86.03L258.25 86.06L257.86 86.08L257.46 86.1L257.06 86.11L256.64 86.12L256.2 86.12L255.76 86.11L255.3 86.1L254.83 86.09L254.34 86.07L253.83 86.05L253.31 86.02L252.77 85.99L252.21 85.95L251.64 85.91L251.04 85.86L250.42 85.82L250 85.78L249.58 85.75L249.16 85.72L248.74 85.68L248.32 85.64L247.9 85.6L247.48 85.56L247.07 85.52L246.65 85.48L246.24 85.44L245.83 85.39L245.42 85.35L245.02 85.3L244.62 85.26L244.22 85.21L243.84 85.17L243.45 85.12L243.07 85.07L242.7 85.02L242.34 84.97L241.98 84.92L241.63 84.87L241.29 84.82L240.96 84.77L240.63 84.72L240.32 84.67L240.01 84.63L239.72 84.58L239.43 84.53L239.16 84.48L238.9 84.43L238.65 84.38L238.41 84.34L238.19 84.29L237.98 84.24L237.78 84.2L237.6 84.15L237.43 84.11L237.28 84.07L237.14 84.02L236.96 83.96L236.78 83.91L236.61 83.86L236.45 83.81L236.29 83.77L236.14 83.73L236 83.7L235.87 83.67L235.74 83.64L235.63 83.62L235.51 83.61L235.41 83.6L235.31 83.6L235.21 83.6L235.13 83.6L235.05 83.61L234.97 83.63L234.9 83.65L234.84 83.68L234.78 83.71L234.73 83.75L234.68 83.8L234.64 83.85L234.61 83.91L234.57 83.97L234.55 84.04L234.53 84.11L234.51 84.19L234.5 84.28L234.49 84.37L234.48 84.47L234.48 84.58L234.49 84.69L234.5 84.81L234.51 84.94L234.52 85.07L234.54 85.21L234.56 85.36L234.59 85.52L234.62 85.68L234.74 86.14L234.93 86.58L235.21 87.02L235.55 87.45L235.97 87.86L236.45 88.26L236.99 88.64L237.59 89.01L238.25 89.37L238.97 89.71L239.73 90.04L240.55 90.35L241.41 90.64L242.31 90.92L243.24 91.18L244.22 91.43L245.23 91.65L246.26 91.86L247.33 92.05L248.41 92.22L249.52 92.37L250.65 92.5L251.79 92.61L252.94 92.7L254.1 92.76L255.27 92.81L256.44 92.83L257.61 92.83L258.77 92.81L259.93 92.77L261.08 92.7L262.21 92.6L263.33 92.48L264.43 92.34L265.51 92.17L266.57 91.97L267.6 91.75L268.59 91.49L269.56 91.22L270.48 90.91L271.05 90.71L271.61 90.51L272.14 90.3L272.67 90.08L273.18 89.86L273.67 89.63L274.15 89.4L274.61 89.16L275.07 88.91L275.5 88.66L275.93 88.39L276.34 88.12L276.73 87.85L277.12 87.56L277.49 87.27L277.85 86.97L278.2 86.66L278.53 86.34L278.85 86.01L279.17 85.68L279.47 85.33L279.76 84.98L280.04 84.61L280.3 84.24L280.56 83.85L280.81 83.46L281.05 83.05L281.28 82.64L281.5 82.21L281.71 81.77L281.91 81.32L282.1 80.86L282.29 80.39L282.46 79.9L282.63 79.4L282.79 78.89L282.95 78.37L283.09 77.84L283.23 77.29L283.37 76.73L283.51 76L283.63 75.29L283.73 74.57L283.81 73.87L283.88 73.16L283.93 72.46L283.95 71.77L283.96 71.08L283.96 70.4L283.93 69.73L283.88 69.06L283.82 68.4L283.74 67.75L283.64 67.11L283.53 66.47L283.39 65.84L283.24 65.22L283.07 64.61L282.89 64.01L282.69 63.42L282.47 62.84L282.23 62.27L281.97 61.71L281.7 61.16L281.41 60.62L281.11 60.09L280.79 59.58L280.45 59.08L280.1 58.59L279.72 58.11L279.34 57.65L278.93 57.2L278.51 56.77L278.08 56.35L277.63 55.94L277.16 55.55L276.67 55.17L276.18 54.81L275.66 54.47L275.13 54.14L274.9 54L274.65 53.87L274.4 53.72L274.14 53.58L273.86 53.43L273.58 53.29L273.3 53.14L273 52.98L272.7 52.83L272.39 52.67L272.07 52.52L271.75 52.36L271.43 52.2L271.1 52.05L270.76 51.89L270.42 51.73L270.08 51.57L269.74 51.41L269.39 51.25L269.04 51.09L268.69 50.94L268.33 50.78L267.98 50.62L267.62 50.47L267.27 50.32L266.91 50.17L266.56 50.02L266.21 49.87L265.86 49.73L265.51 49.59L265.17 49.45L264.82 49.31L264.48 49.18L264.15 49.05L263.82 48.93L263.49 48.8L263.17 48.69L262.86 48.57L262.55 48.46L262.25 48.36L261.14 47.98L260.07 47.6L259.04 47.22L258.04 46.85L257.08 46.48L256.15 46.11L255.26 45.74L254.4 45.37L253.58 45L252.79 44.63L252.03 44.26L251.3 43.89L250.6 43.51L249.93 43.13L249.3 42.75L248.69 42.36L248.11 41.97L247.56 41.57L247.04 41.17L246.54 40.76L246.07 40.35L245.62 39.93L245.21 39.5L244.81 39.06L244.44 38.62L244.09 38.17L243.77 37.7L243.47 37.23L243.19 36.75L242.93 36.25L242.69 35.75L242.48 35.23L242.28 34.7L242.1 34.15L241.94 33.6L241.8 33.03L241.67 32.44L241.56 31.84L241.47 31.22L241.39 30.59L241.35 30.23L241.32 29.89L241.29 29.56L241.26 29.23L241.24 28.92L241.22 28.62L241.21 28.32L241.2 28.04L241.19 27.76L241.19 27.49L241.2 27.22L241.21 26.97L241.23 26.71L241.25 26.47L241.28 26.23L241.31 25.99L241.35 25.76L241.4 25.53L241.45 25.3L241.51 25.08L241.57 24.86L241.65 24.64L241.73 24.42L241.81 24.2L241.91 23.99L242.01 23.77L242.12 23.55L242.23 23.33L242.36 23.11L242.49 22.88L242.64 22.66L242.79 22.42L242.94 22.19L243.11 21.95L243.29 21.71L243.48 21.46L243.67 21.2L243.88 20.94L244.09 20.67L244.31 20.4L244.8 19.82L245.31 19.26L245.84 18.74L246.4 18.25L246.96 17.79L247.55 17.36L248.15 16.96L248.77 16.6L249.41 16.26L250.05 15.96L250.71 15.68L251.38 15.44L252.06 15.22L252.76 15.04L253.46 14.89L254.16 14.77L254.88 14.68L255.6 14.62L256.32 14.6L257.05 14.6L257.78 14.63L258.51 14.7L259.25 14.79L259.98 14.92L260.71 15.07L261.44 15.26L262.17 15.48L262.89 15.72L263.61 16L264.32 16.31L265.02 16.65L265.72 17.02L266.41 17.42L267.08 17.86L267.75 18.32L268.4 18.81L269.05 19.33L269.67 19.89L270.28 20.47L270.88 21.09L271.16 21.37L271.42 21.64L271.68 21.9L271.93 22.16L272.18 22.39L272.41 22.62L272.64 22.84L272.87 23.05L273.09 23.25L273.3 23.44L273.51 23.61L273.71 23.78L273.91 23.94L274.11 24.09L274.3 24.23L274.49 24.36L274.67 24.48L274.86 24.59L275.04 24.69L275.21 24.79L275.39 24.88L275.56 24.95L275.74 25.02L275.91 25.08L276.08 25.14L276.26 25.18L276.43 25.22L276.6 25.25L276.78 25.27L276.95 25.29L277.13 25.3L277.31 25.3L277.49 25.3L277.67 25.28L277.86 25.27L278.05 25.24L278.24 25.21L278.44 25.17L278.64 25.13L278.85 25.08L279.03 25.03L279.2 24.98L279.36 24.92L279.52 24.86L279.68 24.8L279.83 24.74L279.97 24.68L280.11 24.61L280.25 24.54L280.38 24.47L280.5 24.4L280.62 24.33L280.74 24.25L280.85 24.17L280.95 24.09L281.05 24L281.15 23.92L281.24 23.83L281.33 23.73L281.41 23.64L281.48 23.54L281.56 23.43L281.63 23.33L281.69 23.22L281.75 23.1L281.81 22.99L281.86 22.87L281.91 22.74L281.95 22.62L281.99 22.49L282.02 22.35L282.06 22.21L282.08 22.07L282.11 21.92L282.13 21.77L282.14 21.62L282.16 21.46L282.16 21.29L282.17 21.12L282.17 20.95L282.16 20.64L282.14 20.34L282.11 20.04L282.07 19.74L282.01 19.44L281.93 19.15L281.85 18.86L281.74 18.58L281.63 18.3L281.5 18.02L281.36 17.74L281.2 17.46L281.03 17.19L280.84 16.92L280.64 16.65L280.42 16.38L280.19 16.12L279.94 15.86L279.68 15.6L279.4 15.34L279.1 15.08L278.79 14.82L278.47 14.57L278.13 14.32L277.77 14.06L277.39 13.81L277 13.56L276.59 13.31L276.17 13.06L275.73 12.82L275.27 12.57L274.79 12.32L274.3 12.07L273.79 11.83L273.26 11.58L272.71 11.33L272.15 11.09L271.57 10.84L270.97 10.59L270.35 10.35L269.75 10.12L269.14 9.91L268.52 9.71L267.88 9.52L267.23 9.33L266.56 9.16L265.89 9L265.2 8.85L264.51 8.7L263.81 8.57L263.11 8.45L262.4 8.34L261.68 8.24L260.96 8.15L260.24 8.07L259.51 8L258.79 7.94L258.06 7.9L257.34 7.86L256.62 7.83L255.9 7.82L255.19 7.81L254.48 7.82L253.77 7.84Z"
            id="cbBUUNi58"></path>
        <path
            d="M98.15 4.98L100.01 4.98L101.76 4.99L103.41 5L104.96 5.02L106.43 5.04L107.8 5.07L109.08 5.11L110.28 5.15L111.39 5.21L112.43 5.28L113.39 5.36L114.27 5.45L115.08 5.55L115.83 5.67L116.5 5.81L117.12 5.96L117.67 6.13L118.17 6.32L118.61 6.52L119 6.75L119.35 7L119.64 7.27L119.89 7.56L120.1 7.88L120.27 8.22L120.41 8.59L120.52 8.98L120.59 9.41L120.64 9.86L120.66 10.34L120.66 10.85L120.65 11.39L120.61 11.97L120.57 12.58L120.51 13.22L120.45 13.9L120.38 14.62L119.85 20.12L82.92 20.12L82.92 43.54L97.53 43.54L98.71 43.54L99.83 43.54L100.9 43.55L101.92 43.56L102.89 43.58L103.81 43.61L104.68 43.64L105.5 43.68L106.28 43.73L107.01 43.78L107.7 43.85L108.35 43.92L108.96 44.01L109.53 44.11L110.06 44.22L110.56 44.34L111.02 44.48L111.44 44.63L111.83 44.8L112.2 44.98L112.53 45.18L112.83 45.4L113.1 45.63L113.35 45.89L113.58 46.16L113.78 46.45L113.95 46.76L114.11 47.1L114.25 47.46L114.36 47.84L114.46 48.24L114.55 48.67L114.62 49.12L114.68 49.6L114.72 50.1L114.75 50.63L114.78 51.19L114.79 51.78L114.8 52.39L114.8 53.04L114.8 57.31L82.52 57.31L83.32 67.09L83.35 67.49L83.39 67.89L83.42 68.29L83.46 68.69L83.5 69.09L83.54 69.48L83.59 69.87L83.63 70.26L83.68 70.64L83.73 71.03L83.78 71.4L83.84 71.77L83.89 72.14L83.95 72.5L84.01 72.86L84.07 73.21L84.13 73.55L84.19 73.89L84.25 74.22L84.32 74.54L84.38 74.85L84.45 75.16L84.52 75.45L84.58 75.74L84.65 76.02L84.72 76.29L84.79 76.55L84.86 76.79L84.93 77.03L85 77.25L85.07 77.47L85.14 77.67L85.22 77.85L85.29 78.03L85.36 78.19L85.43 78.34L85.5 78.48L85.57 78.6L85.64 78.7L85.71 78.79L85.81 78.9L85.91 79.01L86.03 79.11L86.16 79.21L86.3 79.31L86.45 79.4L86.62 79.49L86.8 79.57L86.99 79.65L87.2 79.73L87.42 79.81L87.66 79.88L87.92 79.94L88.19 80.01L88.47 80.07L88.77 80.12L89.09 80.18L89.43 80.23L89.79 80.28L90.16 80.32L90.55 80.37L90.97 80.41L91.4 80.44L91.85 80.48L92.32 80.51L92.82 80.54L93.33 80.56L93.87 80.59L94.43 80.61L95.01 80.63L95.62 80.65L96.25 80.66L96.9 80.68L97.58 80.69L98.28 80.7L99.01 80.71L99.76 80.71L100.54 80.72L101.35 80.72L102.18 80.72L102.81 80.72L103.43 80.72L104.05 80.73L104.66 80.73L105.27 80.74L105.88 80.75L106.47 80.76L107.06 80.77L107.65 80.78L108.22 80.79L108.79 80.8L109.35 80.82L109.9 80.84L110.44 80.85L110.97 80.87L111.49 80.89L111.99 80.91L112.49 80.93L112.97 80.95L113.44 80.98L113.9 81L114.34 81.03L114.77 81.05L115.18 81.08L115.58 81.1L115.96 81.13L116.32 81.16L116.67 81.19L117 81.21L117.31 81.24L117.61 81.27L117.88 81.3L118.13 81.33L118.37 81.36L118.58 81.39L118.77 81.42L118.94 81.45L119.09 81.48L119.22 81.51L119.32 81.55L119.44 81.59L119.55 81.64L119.66 81.7L119.77 81.76L119.87 81.83L119.97 81.91L120.06 81.99L120.15 82.08L120.24 82.18L120.32 82.29L120.4 82.4L120.48 82.52L120.55 82.64L120.62 82.78L120.69 82.92L120.76 83.07L120.82 83.23L120.87 83.39L120.93 83.57L120.98 83.75L121.03 83.94L121.07 84.14L121.12 84.34L121.15 84.56L121.19 84.78L121.23 85.02L121.26 85.26L121.29 85.51L121.31 85.77L121.34 86.04L121.36 86.32L121.38 86.61L121.39 86.9L121.41 87.21L121.42 87.53L121.43 87.85L121.43 88.19L121.44 88.53L121.44 88.89L121.44 89.26L121.44 96.14L100.32 95.59L98.56 95.56L96.88 95.53L95.27 95.49L93.74 95.44L92.28 95.4L90.88 95.34L89.56 95.28L88.3 95.21L87.11 95.13L85.97 95.04L84.9 94.95L83.88 94.84L82.91 94.72L82 94.58L81.13 94.44L80.32 94.28L79.55 94.1L78.82 93.91L78.13 93.7L77.48 93.48L76.86 93.23L76.28 92.97L75.73 92.68L75.21 92.38L74.71 92.05L74.24 91.71L73.8 91.34L73.37 90.94L72.96 90.52L72.57 90.07L72.18 89.6L71.81 89.1L71.45 88.57L71.1 88.02L70.75 87.43L70.4 86.81L70.05 86.17L69.7 85.49L69.34 84.77L68.97 84.02L68.86 83.76L68.74 83.46L68.63 83.12L68.51 82.73L68.4 82.31L68.3 81.84L68.19 81.34L68.09 80.79L67.99 80.2L67.89 79.57L67.79 78.91L67.7 78.2L67.6 77.44L67.51 76.65L67.42 75.82L67.34 74.95L67.25 74.03L67.17 73.08L67.09 72.08L67.02 71.04L66.94 69.97L66.87 68.85L66.8 67.69L66.73 66.49L66.66 65.25L66.6 63.97L66.53 62.65L66.47 61.28L66.42 59.88L66.36 58.44L66.31 56.95L66.25 55.42L66.21 53.86L66.16 52.25L66.11 50.6L66.07 48.91L66.03 47.18L65.99 45.41L65.95 43.6L65.92 41.75L65.39 4.97L91.95 4.97L94.13 4.97L96.2 4.98L98.15 4.98ZM69.9 43.81L69.94 45.59L69.97 47.32L70 49.01L70.04 50.66L70.07 52.26L70.11 53.82L70.15 55.34L70.19 56.82L70.23 58.26L70.28 59.65L70.32 61L70.37 62.32L70.42 63.59L70.47 64.82L70.52 66.01L70.57 67.16L70.63 68.28L70.68 69.35L70.74 70.38L70.8 71.37L70.86 72.33L70.92 73.24L70.99 74.12L71.05 74.96L71.12 75.76L71.19 76.52L71.26 77.24L71.33 77.93L71.4 78.58L71.47 79.19L71.55 79.77L71.63 80.31L71.7 80.81L71.78 81.28L71.87 81.71L71.95 82.11L72.03 82.47L72.12 82.79L72.21 83.08L72.3 83.34L72.49 83.84L72.69 84.33L72.91 84.8L73.14 85.24L73.38 85.67L73.64 86.09L73.91 86.48L74.2 86.85L74.51 87.21L74.84 87.55L75.19 87.88L75.57 88.19L75.97 88.48L76.39 88.76L76.84 89.02L77.31 89.27L77.82 89.5L78.35 89.72L78.92 89.93L79.52 90.12L80.15 90.3L80.82 90.47L81.52 90.62L82.26 90.76L83.04 90.89L83.86 91.01L84.72 91.12L85.62 91.22L86.57 91.31L87.56 91.39L88.59 91.46L89.68 91.52L90.81 91.58L91.99 91.62L93.22 91.66L94.51 91.69L95.84 91.71L97.24 91.73L98.69 91.73L100.19 91.74L117.46 91.74L117.46 88.43L117.46 88.19L117.46 87.96L117.45 87.74L117.44 87.54L117.42 87.34L117.4 87.15L117.36 86.98L117.32 86.81L117.26 86.66L117.2 86.51L117.11 86.37L117.01 86.25L116.89 86.12L116.75 86.01L116.6 85.9L116.42 85.81L116.21 85.71L115.99 85.63L115.73 85.55L115.45 85.47L115.14 85.4L114.8 85.34L114.42 85.28L114.02 85.22L113.57 85.17L113.1 85.12L112.58 85.07L112.02 85.03L111.43 84.99L110.79 84.95L110.11 84.91L109.38 84.87L108.61 84.83L107.79 84.8L106.92 84.76L106 84.73L105.03 84.69L104 84.65L102.92 84.62L101.78 84.58L100.47 84.54L99.22 84.51L98.02 84.47L96.89 84.43L95.8 84.38L94.78 84.33L93.8 84.28L92.88 84.21L92 84.14L91.18 84.05L90.4 83.96L89.66 83.86L88.96 83.75L88.31 83.62L87.7 83.49L87.12 83.34L86.58 83.17L86.08 82.99L85.6 82.79L85.16 82.58L84.75 82.35L84.37 82.1L84.01 81.83L83.68 81.54L83.37 81.23L83.08 80.9L82.82 80.55L82.57 80.17L82.33 79.77L82.11 79.35L81.91 78.9L81.72 78.42L81.53 77.91L81.36 77.38L81.19 76.82L81.03 76.23L80.87 75.61L80.71 74.96L80.56 74.27L80.4 73.56L80.24 72.87L80.1 72.2L79.96 71.55L79.84 70.9L79.72 70.28L79.61 69.66L79.51 69.06L79.43 68.47L79.35 67.9L79.28 67.34L79.22 66.79L79.17 66.25L79.13 65.73L79.09 65.22L79.07 64.72L79.06 64.24L79.06 63.77L79.06 63.31L79.08 62.86L79.1 62.42L79.14 61.99L79.18 61.58L79.24 61.18L79.3 60.79L79.37 60.41L79.45 60.04L79.54 59.68L79.65 59.33L79.76 58.99L79.88 58.67L80 58.35L80.14 58.04L80.29 57.74L80.45 57.46L80.62 57.18L80.79 56.91L80.98 56.65L81.17 56.4L81.38 56.16L81.59 55.93L81.76 55.76L81.93 55.59L82.1 55.44L82.28 55.28L82.45 55.14L82.63 55L82.82 54.87L83.01 54.74L83.21 54.63L83.41 54.51L83.63 54.4L83.85 54.3L84.08 54.21L84.33 54.12L84.58 54.03L84.85 53.95L85.14 53.87L85.43 53.8L85.75 53.74L86.08 53.68L86.42 53.62L86.79 53.57L87.18 53.52L87.58 53.47L88.01 53.43L88.46 53.39L88.93 53.36L89.42 53.33L89.94 53.3L90.49 53.28L91.06 53.26L91.66 53.24L92.28 53.22L92.94 53.21L93.62 53.2L94.34 53.19L95.09 53.18L95.87 53.18L96.68 53.18L97.53 53.18L98.44 53.18L99.3 53.17L100.13 53.17L100.91 53.17L101.65 53.16L102.36 53.16L103.03 53.15L103.66 53.14L104.26 53.13L104.82 53.11L105.35 53.1L105.85 53.08L106.32 53.05L106.76 53.03L107.17 52.99L107.55 52.96L107.9 52.92L108.23 52.88L108.53 52.83L108.81 52.78L109.06 52.72L109.3 52.66L109.51 52.59L109.7 52.52L109.87 52.44L110.03 52.36L110.16 52.27L110.28 52.17L110.39 52.07L110.48 51.96L110.56 51.84L110.62 51.71L110.68 51.58L110.72 51.44L110.75 51.29L110.78 51.13L110.8 50.97L110.81 50.8L110.82 50.61L110.82 50.42L110.82 50.23L110.81 50.05L110.8 49.87L110.78 49.71L110.75 49.55L110.72 49.4L110.68 49.26L110.62 49.13L110.56 49.01L110.48 48.89L110.39 48.78L110.28 48.67L110.16 48.58L110.03 48.48L109.87 48.4L109.7 48.32L109.51 48.25L109.3 48.18L109.06 48.12L108.81 48.06L108.53 48.01L108.23 47.96L107.9 47.92L107.55 47.88L107.17 47.85L106.76 47.82L106.32 47.79L105.85 47.77L105.35 47.75L104.82 47.73L104.26 47.71L103.66 47.7L103.03 47.69L102.36 47.68L101.65 47.68L100.91 47.67L100.13 47.67L99.3 47.67L98.44 47.67L97.53 47.67L96.27 47.67L95.06 47.66L93.91 47.64L92.82 47.62L91.78 47.59L90.79 47.55L89.85 47.5L88.97 47.43L88.13 47.36L87.34 47.26L86.6 47.16L85.9 47.03L85.25 46.89L84.63 46.73L84.06 46.54L83.53 46.34L83.03 46.11L82.57 45.86L82.15 45.58L81.76 45.27L81.4 44.94L81.08 44.58L80.78 44.19L80.51 43.77L80.27 43.32L80.05 42.83L79.86 42.31L79.69 41.75L79.54 41.15L79.41 40.52L79.31 39.85L79.21 39.14L79.14 38.38L79.08 37.58L79.03 36.74L78.99 35.85L78.97 34.92L78.95 33.94L78.94 32.91L78.94 31.83L78.94 30.72L78.95 29.66L78.96 28.66L78.98 27.71L79.02 26.8L79.06 25.94L79.12 25.13L79.2 24.37L79.29 23.64L79.4 22.96L79.53 22.33L79.69 21.73L79.87 21.17L80.07 20.65L80.3 20.16L80.57 19.71L80.86 19.29L81.18 18.91L81.55 18.55L81.94 18.23L82.38 17.93L82.85 17.67L83.37 17.42L83.93 17.2L84.53 17.01L85.19 16.84L85.89 16.68L86.64 16.55L87.44 16.43L88.3 16.34L89.21 16.25L90.18 16.19L91.2 16.13L92.29 16.09L93.44 16.05L94.66 16.03L95.94 16.01L97.29 16L98.7 15.99L100.19 15.99L100.84 15.99L101.49 15.99L102.13 15.99L102.77 15.98L103.39 15.97L104.01 15.96L104.62 15.96L105.21 15.94L105.8 15.93L106.38 15.92L106.95 15.9L107.5 15.88L108.04 15.87L108.57 15.85L109.09 15.83L109.59 15.8L110.08 15.78L110.55 15.75L111.01 15.73L111.45 15.7L111.87 15.67L112.28 15.64L112.67 15.61L113.04 15.58L113.4 15.54L113.73 15.51L114.05 15.47L114.34 15.43L114.62 15.39L114.87 15.35L115.1 15.31L115.31 15.27L115.5 15.23L115.67 15.18L115.81 15.14L115.92 15.09L116.01 15.04L116.08 14.99L116.12 14.94L116.13 14.89L116.11 14.85L116.07 14.81L115.99 14.77L115.88 14.73L115.74 14.7L115.57 14.66L115.37 14.63L115.15 14.6L114.89 14.56L114.62 14.53L114.31 14.5L113.98 14.48L113.62 14.45L113.24 14.43L112.84 14.4L112.41 14.38L111.96 14.36L111.49 14.34L111 14.32L110.49 14.31L109.95 14.29L109.4 14.28L108.83 14.27L108.24 14.26L107.63 14.25L107.01 14.24L106.37 14.24L105.72 14.23L105.05 14.23L104.36 14.23L103.66 14.23L102.95 14.24L102.23 14.24L101.49 14.25L100.75 14.26L99.99 14.27L99.22 14.29L98.45 14.3L97.66 14.32L96.87 14.34L77.61 14.75L77.61 49.04L93.02 49.04L93.75 49.05L94.46 49.05L95.15 49.05L95.83 49.06L96.48 49.07L97.12 49.08L97.75 49.09L98.35 49.11L98.93 49.13L99.5 49.14L100.05 49.16L100.58 49.19L101.09 49.21L101.58 49.24L102.06 49.26L102.51 49.29L102.95 49.32L103.37 49.35L103.76 49.39L104.14 49.42L104.5 49.46L104.84 49.5L105.16 49.54L105.46 49.58L105.74 49.62L106 49.67L106.24 49.71L106.46 49.76L106.66 49.81L106.84 49.86L107 49.91L107.14 49.96L107.26 50.01L107.35 50.07L107.43 50.13L107.49 50.18L107.52 50.24L107.53 50.3L107.53 50.36L107.5 50.42L107.45 50.48L107.37 50.54L107.28 50.6L107.16 50.66L107.02 50.72L106.86 50.77L106.68 50.83L106.48 50.88L106.26 50.93L106.02 50.99L105.76 51.04L105.49 51.08L105.19 51.13L104.88 51.18L104.55 51.22L104.21 51.26L103.84 51.3L103.47 51.34L103.07 51.38L102.66 51.42L102.24 51.46L101.8 51.49L101.35 51.52L100.89 51.55L100.41 51.58L99.92 51.61L99.42 51.63L98.9 51.66L98.38 51.68L97.84 51.7L97.29 51.72L96.73 51.73L96.17 51.75L95.59 51.76L95 51.77L94.41 51.78L93.81 51.79L93.2 51.79L92.58 51.8L91.95 51.8L77.21 51.8L77.87 67.64L77.93 68.84L77.98 69.99L78.02 71.08L78.06 72.12L78.09 73.11L78.11 74.05L78.13 74.93L78.14 75.76L78.14 76.54L78.13 77.27L78.12 77.94L78.09 78.57L78.06 79.15L78.03 79.67L77.98 80.15L77.93 80.57L77.86 80.95L77.79 81.28L77.71 81.56L77.63 81.79L77.53 81.97L77.42 82.1L77.31 82.19L77.19 82.23L77.05 82.23L76.91 82.17L76.76 82.07L76.6 81.93L76.43 81.74L76.25 81.5L76.06 81.22L75.86 80.9L75.65 80.53L75.43 80.11L75.2 79.66L74.96 79.16L74.71 78.61L74.45 78.03L74.17 77.4L73.89 76.73L73.77 76.43L73.66 76.11L73.55 75.78L73.44 75.43L73.34 75.06L73.24 74.67L73.14 74.26L73.05 73.82L72.96 73.36L72.88 72.88L72.79 72.36L72.71 71.82L72.64 71.26L72.56 70.66L72.49 70.03L72.42 69.37L72.35 68.67L72.29 67.94L72.22 67.18L72.16 66.38L72.1 65.54L72.05 64.67L71.99 63.75L71.94 62.79L71.89 61.8L71.84 60.75L71.79 59.67L71.74 58.54L71.69 57.36L71.65 56.14L71.6 54.87L71.56 53.55L71.52 52.17L71.48 50.75L71.43 49.27L71.39 47.74L71.35 46.16L71.31 44.51L71.27 42.81L71.23 41.06L70.7 10.35L93.42 10.76L94.35 10.78L95.27 10.8L96.18 10.81L97.09 10.83L97.98 10.84L98.86 10.85L99.72 10.85L100.57 10.86L101.41 10.86L102.23 10.86L103.04 10.86L103.83 10.86L104.6 10.86L105.36 10.85L106.09 10.84L106.81 10.83L107.5 10.82L108.17 10.81L108.83 10.79L109.46 10.78L110.06 10.76L110.64 10.74L111.2 10.71L111.73 10.69L112.24 10.66L112.71 10.64L113.16 10.61L113.58 10.57L113.98 10.54L114.34 10.51L114.67 10.47L114.97 10.43L115.23 10.39L115.47 10.35L115.67 10.31L115.83 10.26L115.96 10.22L116.05 10.17L116.11 10.12L116.13 10.07L116.11 10.03L116.05 9.99L115.96 9.95L115.82 9.91L115.65 9.87L115.45 9.83L115.21 9.8L114.94 9.76L114.63 9.72L114.29 9.69L113.92 9.65L113.52 9.62L113.08 9.59L112.62 9.55L112.13 9.52L111.61 9.49L111.07 9.46L110.49 9.44L109.9 9.41L109.27 9.38L108.63 9.36L107.96 9.33L107.26 9.31L106.55 9.29L105.81 9.27L105.05 9.25L104.28 9.23L103.48 9.21L102.67 9.19L101.84 9.18L100.99 9.17L100.13 9.15L99.25 9.14L98.36 9.13L97.46 9.13L96.54 9.12L95.61 9.11L94.67 9.11L93.71 9.11L92.75 9.11L69.37 9.11L69.9 43.81Z"
            id="bzxBY7C6M"></path>
        <path
            d="M3.21 52.1C3.21 53.75 4.5 55.38 7.09 56.98L26.59 72.34C32.08 76.93 36.64 80.56 40.27 83.22C47.18 88.46 50.37 90.11 51.43 89.01C52.23 88.18 52.62 87.36 52.23 87.08C51.96 86.8 41.86 79.37 29.78 70.42C19.87 63.08 10.89 56.71 7.95 53.57C7.31 52.88 7.12 52.03 7.09 51.72C6.94 49.98 10.1 46.7 14.24 43.84C30.04 32.96 54.88 13.54 54.88 12.02C55.15 8.58 51.16 10.92 28.71 28.14C4.94 46.18 3.21 47.83 3.21 52.1Z"
            id="fuo8vW0XU"></path>
        <path
            d="M296.92 15.17C297.18 15.3 307.54 22.74 319.76 31.69C334.64 42.57 341.95 48.63 341.68 50.15C341.41 51.25 330.65 60.06 317.77 69.56C296.92 84.99 291.07 90.36 295.45 90.36C297.05 90.36 342.08 57.03 344.47 54C348.45 49.04 345.8 46.01 322.68 28.8C310.33 19.57 299.7 12 299.17 11.86C298.64 11.86 297.85 12.55 297.45 13.38C296.92 14.2 296.78 14.89 296.92 15.17Z"
            id="bf0vi3j6o"></path>
        <path
            d="M-3.49 97.93C-3.49 96.79 -4.38 95.87 -5.48 95.87C-6.58 95.87 -7.47 96.79 -7.47 97.93C-7.47 99.08 -6.58 100 -5.48 100C-4.38 100 -3.49 99.08 -3.49 97.93"
            id="a1lPqGWRd"></path>
    </defs>
    <g>
        <g>
            <g>
                <use xlink:href="#a3Zhl9vmFu" opacity="1" fill="#000000" fill-opacity="1"></use>
                <g>
                    <use xlink:href="#a3Zhl9vmFu" opacity="1" fill-opacity="0" stroke="#000000" stroke-width="1"
                        stroke-opacity="0"></use>
                </g>
            </g>
            <g>
                <use xlink:href="#b2iez7Uwbj" opacity="1" fill="#000000" fill-opacity="1"></use>
                <g>
                    <use xlink:href="#b2iez7Uwbj" opacity="1" fill-opacity="0" stroke="#000000" stroke-width="1"
                        stroke-opacity="0"></use>
                </g>
            </g>
            <g>
                <use xlink:href="#cbBUUNi58" opacity="1" fill="#000000" fill-opacity="1"></use>
                <g>
                    <use xlink:href="#cbBUUNi58" opacity="1" fill-opacity="0" stroke="#000000" stroke-width="1"
                        stroke-opacity="0"></use>
                </g>
            </g>
            <g>
                <use xlink:href="#bzxBY7C6M" opacity="1" fill="#000000" fill-opacity="1"></use>
                <g>
                    <use xlink:href="#bzxBY7C6M" opacity="1" fill-opacity="0" stroke="#000000" stroke-width="1"
                        stroke-opacity="0"></use>
                </g>
            </g>
            <g>
                <use xlink:href="#fuo8vW0XU" opacity="1" fill="#000000" fill-opacity="1"></use>
                <g>
                    <use xlink:href="#fuo8vW0XU" opacity="1" fill-opacity="0" stroke="#000000" stroke-width="1"
                        stroke-opacity="0"></use>
                </g>
            </g>
            <g>
                <use xlink:href="#bf0vi3j6o" opacity="1" fill="#000000" fill-opacity="1"></use>
                <g>
                    <use xlink:href="#bf0vi3j6o" opacity="1" fill-opacity="0" stroke="#000000" stroke-width="1"
                        stroke-opacity="0"></use>
                </g>
            </g>
            <g>
                <use xlink:href="#a1lPqGWRd" opacity="1" fill="#000000" fill-opacity="1"></use>
                <g>
                    <use xlink:href="#a1lPqGWRd" opacity="1" fill-opacity="0" stroke="#000000" stroke-width="1"
                        stroke-opacity="0"></use>
                </g>
            </g>
        </g>
    </g>
</svg>